:FULLY-SPECIFIED
:FORCE-ALL-JOINTS-BE-3DOF
:DEGREES
849
root 3.74912 16.3838 27.9977 -5.13618 -0.836696 356.654
lfemur -28.3505 -0.170722 -11.6652
ltibia 35.5892 0 0
lfoot -2.86906 -9.9351 0
ltoes -2.3583 0 0
rfemur -8.46844 -6.62153 2.03917
rtibia 75.5991 0 0
rfoot 27.4953 16.2859 0
rtoes -23.2088 0 0
lowerback -1.45251 5.55149 0.971566
upperback -0.832241 7.40901 1.11958
thorax -0.110059 3.70123 0.65256
lowerneck -6.22545 -3.56976 3.10579
upperneck 9.54829 -5.22834 1.0321
head 4.17548 -2.41449 -0.483711
lclavicle 3.44985e-14 -1.03901e-14 0
lhumerus -55.902 -3.02568 85.0632
lradius 53.3359 0 0
lwrist 17.2439 0 0
lhand -5.64076 4.11576 0
lfingers 7.12502 0 0
lthumb 20.1981 33.2684 0
rclavicle 3.44985e-14 -1.03901e-14 0
rhumerus -34.4788 24.7454 -76.3966
rradius 53.8004 0 0
rwrist 8.62735 0 0
rhand -32.1704 -24.3244 0
rfingers 7.12502 0 0
rthumb -5.41325 -774.334 0
850
root 3.76787 16.3995 28.0913 -5.11704 -0.933472 356.633
lfemur -28.3847 -0.293255 -11.6041
ltibia 35.4891 0 0
lfoot -2.81627 -10.0264 0
ltoes -2.16538 0 0
rfemur -8.14731 -6.41678 1.85225
rtibia 75.1565 0 0
rfoot 27.3116 16.0373 0
rtoes -23.221 0 0
lowerback -1.49681 5.59098 1.01576
upperback -0.848036 7.4659 1.13133
thorax -0.102373 3.72955 0.634765
lowerneck -6.21296 -3.56481 3.11313
upperneck 9.55021 -5.22116 1.01461
head 4.17342 -2.41139 -0.490122
lclavicle 3.48189e-14 -1.04481e-14 0
lhumerus -55.9651 -2.84817 85.0314
lradius 53.2877 0 0
lwrist 17.2589 0 0
lhand -5.81645 4.06223 0
lfingers 7.12502 0 0
lthumb 20.0328 33.2639 0
rclavicle 3.48189e-14 -1.04481e-14 0
rhumerus -34.4336 25.09 -76.5939
rradius 53.6895 0 0
rwrist 8.79685 0 0
rhand -31.8774 -24.1184 0
rfingers 7.12502 0 0
rthumb -5.13063 -774.131 0
851
root 3.78663 16.4153 28.1848 -5.14675 -0.91762 356.621
lfemur -28.3326 -0.374608 -11.5725
ltibia 35.3624 0 0
lfoot -2.78212 -10.1843 0
ltoes -1.8 0 0
rfemur -8.12732 -6.1703 1.71469
rtibia 74.5725 0 0
rfoot 26.962 15.6646 0
rtoes -23.1114 0 0
lowerback -1.45125 5.58857 1.03199
upperback -0.832301 7.46345 1.12822
thorax -0.10955 3.72831 0.619584
lowerneck -6.20124 -3.55622 3.11608
upperneck 9.5322 -5.20939 1.01099
head 4.16537 -2.40591 -0.490843
lclavicle 3.49983e-14 -1.05432e-14 0
lhumerus -55.9061 -2.79278 84.9814
lradius 53.2523 0 0
lwrist 17.3081 0 0
lhand -5.90992 4.01403 0
lfingers 7.12502 0 0
lthumb 19.9459 33.2505 0
rclavicle 3.49983e-14 -1.05432e-14 0
rhumerus -34.4765 25.2989 -76.6845
rradius 53.5885 0 0
rwrist 8.89996 0 0
rhand -31.453 -23.9509 0
rfingers 7.12502 0 0
rthumb -4.72118 -773.963 0
852
root 3.80538 16.431 28.2784 -5.24771 -0.749835 356.626
lfemur -28.1616 -0.399069 -11.5918
ltibia 35.2161 0 0
lfoot -2.77003 -10.4452 0
ltoes -1.22805 0 0
rfemur -8.51829 -5.88271 1.63125
rtibia 73.8531 0 0
rfoot 26.4338 15.1547 0
rtoes -22.8401 0 0
lowerback -1.2882 5.52959 1.00715
upperback -0.775337 7.38091 1.10621
thorax -0.136835 3.68717 0.610901
lowerneck -6.19131 -3.54449 3.11296
upperneck 9.49467 -5.19396 1.02566
head 4.15178 -2.39835 -0.484191
lclavicle 3.50114e-14 -1.0693e-14 0
lhumerus -55.6876 -2.89866 84.9046
lradius 53.2353 0 0
lwrist 17.4011 0 0
lhand -5.89108 3.97296 0
lfingers 7.12502 0 0
lthumb 19.966 33.2245 0
rclavicle 3.50114e-14 -1.0693e-14 0
rhumerus -34.6391 25.3084 -76.6087
rradius 53.4932 0 0
rwrist 8.92056 0 0
rhand -30.8804 -23.8392 0
rfingers 7.12502 0 0
rthumb -4.16863 -773.846 0
853
root 3.82414 16.4468 28.3719 -5.44233 -0.390811 356.652
lfemur -27.8389 -0.350922 -11.6834
ltibia 35.0575 0 0
lfoot -2.78344 -10.8456 0
ltoes -0.415421 0 0
rfemur -9.43003 -5.55466 1.60672
rtibia 73.0039 0 0
rfoot 25.7141 14.4948 0
rtoes -22.3672 0 0
lowerback -0.980021 5.39934 0.928161
upperback -0.667443 7.19754 1.06126
thorax -0.189474 3.59579 0.612603
lowerneck -6.18417 -3.53009 3.10209
upperneck 9.43803 -5.17576 1.06305
head 4.13315 -2.38899 -0.468481
lclavicle 3.48326e-14 -1.09152e-14 0
lhumerus -55.2724 -3.20498 84.792
lradius 53.2427 0 0
lwrist 17.5473 0 0
lhand -5.72983 3.94077 0
lfingers 7.12502 0 0
lthumb 20.122 33.1823 0
rclavicle 3.48326e-14 -1.09152e-14 0
rhumerus -34.9532 25.0551 -76.3067
rradius 53.3998 0 0
rwrist 8.84254 0 0
rhand -30.1428 -23.8006 0
rfingers 7.12502 0 0
rthumb -3.45677 -773.798 0
854
root 3.84289 16.4625 28.4655 -5.75302 0.198755 356.707
lfemur -27.3318 -0.214455 -11.8685
ltibia 34.8936 0 0
lfoot -2.82578 -11.4218 0
ltoes 0.672 0 0
rfemur -10.9724 -5.18676 1.64587
rtibia 72.0307 0 0
rfoot 24.7904 13.6719 0
rtoes -21.653 0 0
lowerback -0.499089 5.18315 0.781919
upperback -0.498921 6.89259 0.989331
thorax -0.272712 3.44383 0.628573
lowerneck -6.18082 -3.51352 3.08183
upperneck 9.3627 -5.15572 1.12758
head 4.10992 -2.37815 -0.442031
lclavicle 3.44365e-14 -1.12274e-14 0
lhumerus -54.6233 -3.7509 84.6349
lradius 53.2801 0 0
lwrist 17.756 0 0
lhand -5.39607 3.91925 0
lfingers 7.12502 0 0
lthumb 20.4423 33.1203 0
rclavicle 3.44365e-14 -1.12274e-14 0
rhumerus -35.4502 24.4754 -75.7186
rradius 53.304 0 0
rwrist 8.64977 0 0
rhand -29.2233 -23.8523 0
rfingers 7.12502 0 0
rthumb -2.56934 -773.834 0
855
root 3.86165 16.4783 28.5591 -6.20218 1.05817 356.796
lfemur -26.6077 0.0260472 -12.1687
ltibia 34.7315 0 0
lfoot -2.90047 -12.2102 0
ltoes 2.06832 0 0
rfemur -13.2551 -4.77966 1.75346
rtibia 70.9393 0 0
rfoot 23.6497 12.673 0
rtoes -20.6575 0 0
lowerback 0.182226 4.86632 0.555332
upperback -0.260073 6.44534 0.886387
thorax -0.391795 3.22094 0.662696
lowerneck -6.18229 -3.49526 3.05049
upperneck 9.2691 -5.13474 1.22369
head 4.08258 -2.36611 -0.403157
lclavicle 3.37976e-14 -1.16473e-14 0
lhumerus -53.7029 -4.57558 84.4245
lradius 53.3536 0 0
lwrist 18.0368 0 0
lhand -4.8597 3.91016 0
lfingers 7.12502 0 0
lthumb 20.9558 33.0348 0
rclavicle 3.37976e-14 -1.16473e-14 0
rhumerus -36.1619 23.5057 -74.7847
rradius 53.202 0 0
rwrist 8.32615 0 0
rhand -28.1052 -24.0118 0
rfingers 7.12502 0 0
rthumb -1.49011 -773.972 0
856
root 3.88041 16.494 28.6526 -6.81223 2.22673 356.927
lfemur -25.634 0.386298 -12.6051
ltibia 34.5785 0 0
lfoot -3.01095 -13.2472 0
ltoes 3.80766 0 0
rfemur -16.388 -4.33397 1.93428
rtibia 69.7353 0 0
rfoot 22.2794 11.4853 0
rtoes -19.3409 0 0
lowerback 1.09156 4.43419 0.235308
upperback 0.0588016 5.83502 0.748386
thorax -0.551968 2.91679 0.718858
lowerneck -6.18956 -3.4758 3.00641
upperneck 9.15765 -5.11374 1.35579
head 4.05159 -2.35317 -0.350175
lclavicle 3.28904e-14 -1.21925e-14 0
lhumerus -52.4741 -5.71819 84.152
lradius 53.4688 0 0
lwrist 18.3991 0 0
lhand -4.09063 3.91528 0
lfingers 7.12502 0 0
lthumb 21.6912 32.9223 0
rclavicle 3.28904e-14 -1.21925e-14 0
rhumerus -37.1199 22.0826 -73.4451
rradius 53.0896 0 0
rwrist 7.85555 0 0
rhand -26.7717 -24.2964 0
rfingers 7.12502 0 0
rthumb -0.202836 -774.228 0
857
root 3.89916 16.5098 28.7462 -7.60557 3.74376 357.105
lfemur -24.3779 0.882012 -13.1991
ltibia 34.4416 0 0
lfoot -3.16064 -14.5692 0
ltoes 5.92412 0 0
rfemur -20.481 -3.85034 2.1931
rtibia 68.4245 0 0
rfoot 20.6666 10.0958 0
rtoes -17.6634 0 0
lowerback 2.25653 3.87206 -0.191247
upperback 0.467401 5.0409 0.571287
thorax -0.758476 2.52104 0.800944
lowerneck -6.20367 -3.45562 2.94792
upperneck 9.02875 -5.09361 1.52831
head 4.01743 -2.33963 -0.281402
lclavicle 3.16895e-14 -1.28807e-14 0
lhumerus -50.8995 -7.21788 83.8087
lradius 53.6317 0 0
lwrist 18.8523 0 0
lhand -3.05875 3.93639 0
lfingers 7.12502 0 0
lthumb 22.677 32.779 0
rclavicle 3.16895e-14 -1.28807e-14 0
rhumerus -38.3558 20.1424 -71.6401
rradius 52.9629 0 0
rwrist 7.22185 0 0
rhand -25.206 -24.7233 0
rfingers 7.12502 0 0
rthumb 1.30871 -774.62 0
858
root 3.91792 16.5255 28.8398 -8.6046 5.64854 357.337
lfemur -22.8068 1.5289 -13.9722
ltibia 34.3279 0 0
lfoot -3.35298 -16.2125 0
ltoes 8.45182 0 0
rfemur -25.6438 -3.32938 2.53469
rtibia 67.0126 0 0
rfoot 18.7987 8.49157 0
rtoes -15.5851 0 0
lowerback 3.70478 3.16525 -0.737427
upperback 0.975425 4.04224 0.351053
thorax -1.01657 2.02333 0.912837
lowerneck -6.2256 -3.43521 2.87335
upperneck 8.88282 -5.07527 1.74569
head 3.98056 -2.32578 -0.195155
lclavicle 3.01694e-14 -1.37294e-14 0
lhumerus -48.9419 -9.11382 83.3856
lradius 53.848 0 0
lwrist 19.4058 0 0
lhand -1.73397 3.97525 0
lfingers 7.12502 0 0
lthumb 23.9419 32.6015 0
rclavicle 3.01694e-14 -1.37294e-14 0
rhumerus -39.9013 17.6217 -69.3099
rradius 52.8177 0 0
rwrist 6.40895 0 0
rhand -23.3912 -25.3099 0
rfingers 7.12502 0 0
rthumb 3.06078 -775.163 0
859
root 3.93667 16.5413 28.9333 -9.83175 7.9804 357.629
lfemur -20.8879 2.34268 -14.9456
ltibia 34.2447 0 0
lfoot -3.5914 -18.2136 0
ltoes 11.4249 0 0
rfemur -31.9863 -2.77173 2.96382
rtibia 65.5054 0 0
rfoot 16.6629 6.65964 0
rtoes -13.0662 0 0
lowerback 5.46393 2.29907 -1.41633
upperback 1.59257 2.81829 0.0836423
thorax -1.33148 1.41334 1.05842
lowerneck -6.25638 -3.41505 2.78104
upperneck 8.72029 -5.05963 2.01234
head 3.94146 -2.31191 -0.0897494
lclavicle 2.83046e-14 -1.47564e-14 0
lhumerus -46.5641 -11.4452 82.874
lradius 54.1235 0 0
lwrist 20.069 0 0
lhand -0.0861861 4.03364 0
lfingers 7.12502 0 0
lthumb 25.5148 32.3859 0
rclavicle 2.83046e-14 -1.47564e-14 0
rhumerus -41.7879 14.4569 -66.3947
rradius 52.65 0 0
rwrist 5.40072 0 0
rhand -21.3105 -26.0735 0
rfingers 7.12502 0 0
rthumb 5.0696 -775.874 0
860
root 3.95543 16.557 29.0269 -11.3094 10.7786 357.987
lfemur -18.5888 3.33907 -16.1407
ltibia 34.1991 0 0
lfoot -3.87931 -20.6088 0
ltoes 14.8774 0 0
rfemur -39.6182 -2.17803 3.48527
rtibia 63.9087 0 0
rfoot 14.2464 4.58707 0
rtoes -10.0668 0 0
lowerback 7.56161 1.25885 -2.24104
upperback 2.32854 1.34831 -0.234984
thorax -1.70847 0.680715 1.24159
lowerneck -6.297 -3.39564 2.66931
upperneck 8.54156 -5.04759 2.3327
head 3.90059 -2.29834 0.0364978
lclavicle 2.60698e-14 -1.59793e-14 0
lhumerus -43.7287 -14.2511 82.2651
lradius 54.4641 0 0
lwrist 20.8515 0 0
lhand 1.9147 4.11334 0
lfingers 7.12502 0 0
lthumb 27.4241 32.1288 0
rclavicle 2.60698e-14 -1.59793e-14 0
rhumerus -44.0474 10.5844 -62.8347
rradius 52.4558 0 0
rwrist 4.18106 0 0
rhand -18.9471 -27.0315 0
rfingers 7.12502 0 0
rthumb 7.35142 -776.771 0
